<svg width="22" height="17" viewBox="0 0 22 17" fill="none" xmlns="http://www.w3.org/2000/svg">
<path fill-rule="evenodd" clip-rule="evenodd" d="M0 3.16667C0 2.45942 0.280952 1.78115 0.781049 1.28105C1.28115 0.780951 1.95942 0.5 2.66667 0.5H18.6667C19.3739 0.5 20.0522 0.780951 20.5523 1.28105C21.0524 1.78115 21.3333 2.45942 21.3333 3.16667V13.8333C21.3333 14.5406 21.0524 15.2189 20.5523 15.719C20.0522 16.219 19.3739 16.5 18.6667 16.5H2.66667C1.95942 16.5 1.28115 16.219 0.781049 15.719C0.280952 15.2189 0 14.5406 0 13.8333V3.16667ZM2.66667 1.83333C2.31304 1.83333 1.97391 1.97381 1.72386 2.22386C1.47381 2.47391 1.33333 2.81304 1.33333 3.16667V4.5H20V3.16667C20 2.81304 19.8595 2.47391 19.6095 2.22386C19.3594 1.97381 19.0203 1.83333 18.6667 1.83333H2.66667ZM20 7.16667H1.33333V13.8333C1.33333 14.187 1.47381 14.5261 1.72386 14.7761C1.97391 15.0262 2.31304 15.1667 2.66667 15.1667H18.6667C19.0203 15.1667 19.3594 15.0262 19.6095 14.7761C19.8595 14.5261 20 14.187 20 13.8333V7.16667Z" fill="white"/>
<path d="M2.66675 11.1666C2.66675 10.813 2.80722 10.4739 3.05727 10.2238C3.30732 9.97379 3.64646 9.83331 4.00008 9.83331H5.33341C5.68704 9.83331 6.02618 9.97379 6.27622 10.2238C6.52627 10.4739 6.66675 10.813 6.66675 11.1666V12.5C6.66675 12.8536 6.52627 13.1927 6.27622 13.4428C6.02618 13.6928 5.68704 13.8333 5.33341 13.8333H4.00008C3.64646 13.8333 3.30732 13.6928 3.05727 13.4428C2.80722 13.1927 2.66675 12.8536 2.66675 12.5V11.1666Z" fill="white"/>
</svg>
