<svg width="17" height="25" viewBox="0 0 17 25" fill="none" xmlns="http://www.w3.org/2000/svg">
<path d="M16.3229 6.9486L10.5229 1.1486C10.3571 0.982882 10.1914 0.900024 9.94286 0.900024H1.65714C0.745714 0.900024 0 1.64574 0 2.55717V22.4429C0 23.3543 0.745714 24.1 1.65714 24.1H14.9143C15.8257 24.1 16.5714 23.3543 16.5714 22.4429V7.52859C16.5714 7.28002 16.4886 7.11431 16.3229 6.9486ZM9.94286 2.8886L14.5829 7.52859H9.94286V2.8886ZM14.9143 22.4429H1.65714V2.55717H8.28571V7.52859C8.28571 8.44002 9.03143 9.18574 9.94286 9.18574H14.9143V22.4429Z" fill="white"/>
<path d="M3.31427 17.4714H13.2571V19.1286H3.31427V17.4714Z" fill="white"/>
<path d="M3.31427 12.5H13.2571V14.1571H3.31427V12.5Z" fill="white"/>
</svg>
