<svg width="15" height="15" viewBox="0 0 15 15" fill="none" xmlns="http://www.w3.org/2000/svg">
<path d="M2.44604 7.92969H9.88501C10.0103 7.92969 10.1133 7.88717 10.1938 7.80212C10.2744 7.71708 10.3147 7.61414 10.3147 7.49329C10.3147 7.37244 10.2744 7.27173 10.1938 7.19116C10.1133 7.1106 10.0103 7.07031 9.88501 7.07031H2.4729L4.03052 5.5127C4.11108 5.43213 4.15137 5.33142 4.15137 5.21057C4.15137 5.08972 4.11108 4.98901 4.03052 4.90845C3.96785 4.85474 3.90072 4.81669 3.8291 4.79431C3.75749 4.77193 3.68363 4.77193 3.60754 4.79431C3.53145 4.81669 3.46655 4.85474 3.41284 4.90845L0.875 7.51343L3.41284 10.1184C3.4576 10.1542 3.50684 10.1833 3.56055 10.2057C3.61426 10.2281 3.66797 10.2393 3.72168 10.2393C3.83805 10.2393 3.941 10.199 4.03052 10.1184C4.05737 10.0916 4.07975 10.0602 4.09766 10.0244C4.11556 9.98861 4.12899 9.9528 4.13794 9.91699C4.14689 9.88118 4.15137 9.84538 4.15137 9.80957C4.15137 9.77376 4.14689 9.73796 4.13794 9.70215C4.12899 9.66634 4.11556 9.63053 4.09766 9.59473C4.07975 9.55892 4.05737 9.52759 4.03052 9.50073L2.44604 7.92969ZM13.7656 0.625H6.46094C6.21924 0.625 6.01558 0.707804 5.84998 0.873413C5.68437 1.03902 5.60156 1.24268 5.60156 1.48438V5.35156H6.46094V2.00806C6.46094 1.91854 6.48332 1.8335 6.52808 1.75293C6.57284 1.67236 6.6355 1.60746 6.71606 1.55823C6.79663 1.50899 6.88615 1.48438 6.98462 1.48438H13.2285C13.3717 1.48438 13.4926 1.53585 13.5911 1.63879C13.6895 1.74174 13.7388 1.86483 13.7388 2.00806L13.7522 12.9919C13.7522 13.1352 13.703 13.2583 13.6045 13.3612C13.506 13.4642 13.3852 13.5156 13.2419 13.5156H6.98462C6.84139 13.5156 6.7183 13.4642 6.61536 13.3612C6.51241 13.2583 6.46094 13.1352 6.46094 12.9919V9.63501H5.60156V13.5156C5.60156 13.7573 5.68437 13.961 5.84998 14.1266C6.01558 14.2922 6.21924 14.375 6.46094 14.375H13.7656C13.8193 14.375 13.8753 14.3683 13.9335 14.3549C13.9917 14.3414 14.0454 14.3258 14.0946 14.3079C14.1438 14.29 14.1931 14.2653 14.2423 14.234C14.2915 14.2027 14.3341 14.1669 14.3699 14.1266C14.4057 14.0863 14.4392 14.0438 14.4706 13.999C14.5019 13.9543 14.5288 13.905 14.5511 13.8513C14.5735 13.7976 14.5914 13.7439 14.6049 13.6902C14.6183 13.6365 14.625 13.5783 14.625 13.5156V1.48438C14.625 1.13525 14.4683 0.880127 14.155 0.718994C14.0297 0.656331 13.8999 0.625 13.7656 0.625Z" fill="#2366B5"/>
</svg>
