<svg width="21" height="23" viewBox="0 0 21 23" fill="none" xmlns="http://www.w3.org/2000/svg">
<path d="M18.8829 12.0837V11.5V10.9086L20.3575 9.6184C20.6293 9.37883 20.8077 9.05087 20.8611 8.6925C20.9145 8.33413 20.8395 7.96842 20.6493 7.66L18.8369 4.588C18.7022 4.35473 18.5085 4.16098 18.2753 4.02618C18.0421 3.89138 17.7776 3.82028 17.5082 3.82C17.3413 3.81873 17.1753 3.84467 17.0167 3.8968L15.1505 4.52656C14.8283 4.31245 14.4921 4.12003 14.1444 3.95056L13.7527 2.0152C13.6825 1.66162 13.4901 1.344 13.2093 1.11795C12.9285 0.8919 12.5771 0.771817 12.2167 0.778725H8.62246C8.26204 0.771817 7.91067 0.8919 7.62986 1.11795C7.34905 1.344 7.15669 1.66162 7.08646 2.0152L6.69478 3.95056C6.34452 4.11998 6.00586 4.31241 5.68102 4.52656L3.85318 3.86608C3.6929 3.82432 3.52692 3.80876 3.36166 3.82C3.09231 3.82028 2.82776 3.89138 2.59456 4.02618C2.36136 4.16098 2.1677 4.35473 2.03302 4.588L0.220544 7.66C0.0412828 7.96796 -0.02533 8.32867 0.0321146 8.68034C0.0895591 9.03201 0.267487 9.35277 0.535424 9.58768L1.98694 10.9163V12.0914L0.535424 13.3816C0.259918 13.6181 0.0771241 13.9446 0.0194805 14.3032C-0.0381631 14.6617 0.033072 15.029 0.220544 15.34L2.03302 18.412C2.1677 18.6453 2.36136 18.839 2.59456 18.9738C2.82776 19.1086 3.09231 19.1797 3.36166 19.18C3.52859 19.1813 3.6946 19.1553 3.85318 19.1032L5.71942 18.4734C6.04163 18.6876 6.37773 18.88 6.7255 19.0494L7.11718 20.9848C7.18741 21.3384 7.37977 21.656 7.66058 21.8821C7.94139 22.1081 8.29276 22.2282 8.65318 22.2213H12.2781C12.6386 22.2282 12.9899 22.1081 13.2707 21.8821C13.5516 21.656 13.7439 21.3384 13.8141 20.9848L14.2058 19.0494C14.5561 18.88 14.8947 18.6876 15.2196 18.4734L17.0781 19.1032C17.2367 19.1553 17.4027 19.1813 17.5697 19.18C17.839 19.1797 18.1036 19.1086 18.3368 18.9738C18.57 18.839 18.7636 18.6453 18.8983 18.412L20.6493 15.34C20.8286 15.032 20.8952 14.6713 20.8378 14.3197C20.7803 13.968 20.6024 13.6472 20.3345 13.4123L18.8829 12.0837ZM17.5082 17.644L14.874 16.7531C14.2573 17.2754 13.5526 17.6837 12.7927 17.9589L12.2474 20.716H8.62246L8.07718 17.9896C7.32333 17.7067 6.62237 17.2991 6.00358 16.7838L3.36166 17.644L1.54918 14.572L3.63814 12.7288C3.49614 11.9338 3.49614 11.12 3.63814 10.325L1.54918 8.428L3.36166 5.356L5.9959 6.24688C6.61256 5.72456 7.31733 5.31626 8.07718 5.04112L8.62246 2.284H12.2474L12.7927 5.0104C13.5466 5.29335 14.2475 5.70094 14.8663 6.21616L17.5082 5.356L19.3207 8.428L17.2317 10.2712C17.3737 11.0662 17.3737 11.8801 17.2317 12.675L19.3207 14.572L17.5082 17.644Z" fill="white"/>
<path d="M10.4349 16.108C9.52353 16.108 8.63262 15.8378 7.87484 15.3314C7.11706 14.8251 6.52644 14.1054 6.17767 13.2634C5.8289 12.4214 5.73765 11.4949 5.91545 10.6011C6.09325 9.70719 6.53212 8.88612 7.17656 8.24168C7.821 7.59724 8.64206 7.15837 9.53593 6.98057C10.4298 6.80277 11.3563 6.89403 12.1983 7.24279C13.0403 7.59156 13.76 8.18218 14.2663 8.93996C14.7726 9.69774 15.0429 10.5887 15.0429 11.5C15.0491 12.1069 14.9341 12.7088 14.7047 13.2707C14.4753 13.8325 14.1361 14.343 13.707 14.7721C13.2779 15.2012 12.7674 15.5404 12.2056 15.7698C11.6437 15.9992 11.0417 16.1142 10.4349 16.108ZM10.4349 8.42803C10.0289 8.41857 9.62519 8.49157 9.2482 8.6426C8.87122 8.79364 8.52878 9.01957 8.24161 9.30674C7.95445 9.59391 7.72851 9.93634 7.57748 10.3133C7.42644 10.6903 7.35345 11.094 7.36291 11.5C7.35345 11.906 7.42644 12.3097 7.57748 12.6867C7.72851 13.0637 7.95445 13.4062 8.24161 13.6933C8.52878 13.9805 8.87122 14.2064 9.2482 14.3575C9.62519 14.5085 10.0289 14.5815 10.4349 14.572C10.8409 14.5815 11.2446 14.5085 11.6216 14.3575C11.9986 14.2064 12.341 13.9805 12.6282 13.6933C12.9154 13.4062 13.1413 13.0637 13.2923 12.6867C13.4434 12.3097 13.5164 11.906 13.5069 11.5C13.5164 11.094 13.4434 10.6903 13.2923 10.3133C13.1413 9.93634 12.9154 9.59391 12.6282 9.30674C12.341 9.01957 11.9986 8.79364 11.6216 8.6426C11.2446 8.49157 10.8409 8.41857 10.4349 8.42803Z" fill="white"/>
</svg>
