<svg width="20" height="15" viewBox="0 0 20 15" fill="none" xmlns="http://www.w3.org/2000/svg">
<path d="M15.4397 5.38713C15.5131 5.22859 15.5323 5.05414 15.4949 4.88584C15.4574 4.71755 15.365 4.56297 15.2293 4.44167L10.3814 0.104736L9.01038 1.33122L12.2032 4.18753H0V5.9223H14.5438C14.7356 5.92235 14.923 5.87153 15.0825 5.77627C15.242 5.68101 15.3663 5.54559 15.4397 5.38713Z" fill="white"/>
<path d="M4.56024 9.61287C4.48684 9.77141 4.46765 9.94586 4.5051 10.1142C4.54255 10.2825 4.63496 10.437 4.77064 10.5583L9.61858 14.8953L10.9896 13.6688L7.79672 10.8125L20 10.8125V9.0777L5.45614 9.0777C5.26439 9.07765 5.07693 9.12847 4.91746 9.22373C4.758 9.31899 4.63368 9.45441 4.56024 9.61287Z" fill="white"/>
</svg>
