<svg width="20" height="19" viewBox="0 0 20 19" fill="none" xmlns="http://www.w3.org/2000/svg">
<path d="M16.9231 4.99966H3.07692C1.92987 4.99966 1 5.92953 1 7.07659V15.3843C1 16.5313 1.92987 17.4612 3.07692 17.4612H16.9231C18.0701 17.4612 19 16.5313 19 15.3843V7.07659C19 5.92953 18.0701 4.99966 16.9231 4.99966Z" stroke="white" stroke-width="1.53846" stroke-linejoin="round"/>
<path d="M16.7224 4.99966V3.70158C16.7223 3.38321 16.6519 3.06879 16.5163 2.78074C16.3807 2.4927 16.1832 2.23813 15.9378 2.03521C15.6925 1.83229 15.4054 1.68601 15.0971 1.60682C14.7887 1.52762 14.4667 1.51747 14.1539 1.57706L2.75852 3.52202C2.26366 3.61632 1.81722 3.88036 1.49621 4.2686C1.17519 4.65684 0.99972 5.14493 1.00006 5.6487V7.76889" stroke="white" stroke-width="1.53846" stroke-linejoin="round"/>
<path d="M14.8461 12.6151C14.5723 12.6151 14.3046 12.5339 14.0769 12.3817C13.8492 12.2296 13.6717 12.0133 13.5669 11.7603C13.4621 11.5073 13.4347 11.2289 13.4881 10.9603C13.5415 10.6917 13.6734 10.445 13.867 10.2514C14.0607 10.0577 14.3074 9.92586 14.576 9.87243C14.8446 9.81901 15.123 9.84643 15.376 9.95122C15.629 10.056 15.8452 10.2335 15.9974 10.4612C16.1495 10.6889 16.2307 10.9566 16.2307 11.2304C16.2307 11.5977 16.0849 11.9498 15.8252 12.2095C15.5655 12.4692 15.2133 12.6151 14.8461 12.6151Z" fill="white"/>
</svg>
